<svg xmlns="http://www.w3.org/2000/svg" width="32" height="32" viewBox="0 0 32 32">
  <rect width="32" height="32" rx="6" fill="#0D1B2A"/>
  <g transform="translate(6, 6)">
    <polygon points="10,0 20,5 20,15 10,20 0,15 0,5" fill="none" stroke="#C9A84C" stroke-width="1.2"/>
    <circle cx="10" cy="10" r="2.5" fill="#C9A84C"/>
    <circle cx="10" cy="0" r="1.5" fill="#C9A84C"/>
    <circle cx="20" cy="5" r="1.5" fill="#C9A84C"/>
    <circle cx="20" cy="15" r="1.5" fill="#C9A84C"/>
    <circle cx="10" cy="20" r="1.5" fill="#C9A84C"/>
    <circle cx="0" cy="15" r="1.5" fill="#C9A84C"/>
    <circle cx="0" cy="5" r="1.5" fill="#C9A84C"/>
    <line x1="10" y1="0" x2="10" y2="10" stroke="#C9A84C" stroke-width="0.8" opacity="0.7"/>
    <line x1="20" y1="5" x2="10" y2="10" stroke="#C9A84C" stroke-width="0.8" opacity="0.7"/>
    <line x1="20" y1="15" x2="10" y2="10" stroke="#C9A84C" stroke-width="0.8" opacity="0.7"/>
    <line x1="10" y1="20" x2="10" y2="10" stroke="#C9A84C" stroke-width="0.8" opacity="0.7"/>
    <line x1="0" y1="15" x2="10" y2="10" stroke="#C9A84C" stroke-width="0.8" opacity="0.7"/>
    <line x1="0" y1="5" x2="10" y2="10" stroke="#C9A84C" stroke-width="0.8" opacity="0.7"/>
  </g>
</svg>
