<svg xmlns="http://www.w3.org/2000/svg" width="512" height="512" viewBox="0 0 512 512">
  <rect width="512" height="512" rx="100" fill="#0D1B2A"/>
  <g transform="translate(106, 106)">
    <polygon points="150,0 300,75 300,225 150,300 0,225 0,75" fill="none" stroke="#C9A84C" stroke-width="6"/>
    <polygon points="150,30 270,90 270,210 150,270 30,210 30,90" fill="none" stroke="#C9A84C" stroke-width="2" opacity="0.3"/>
    <circle cx="150" cy="150" r="18" fill="#C9A84C"/>
    <circle cx="150" cy="0" r="10" fill="#C9A84C"/>
    <circle cx="300" cy="75" r="10" fill="#C9A84C"/>
    <circle cx="300" cy="225" r="10" fill="#C9A84C"/>
    <circle cx="150" cy="300" r="10" fill="#C9A84C"/>
    <circle cx="0" cy="225" r="10" fill="#C9A84C"/>
    <circle cx="0" cy="75" r="10" fill="#C9A84C"/>
    <line x1="150" y1="0" x2="150" y2="150" stroke="#C9A84C" stroke-width="3" opacity="0.5"/>
    <line x1="300" y1="75" x2="150" y2="150" stroke="#C9A84C" stroke-width="3" opacity="0.5"/>
    <line x1="300" y1="225" x2="150" y2="150" stroke="#C9A84C" stroke-width="3" opacity="0.5"/>
    <line x1="150" y1="300" x2="150" y2="150" stroke="#C9A84C" stroke-width="3" opacity="0.5"/>
    <line x1="0" y1="225" x2="150" y2="150" stroke="#C9A84C" stroke-width="3" opacity="0.5"/>
    <line x1="0" y1="75" x2="150" y2="150" stroke="#C9A84C" stroke-width="3" opacity="0.5"/>
    <circle cx="150" cy="150" r="50" fill="none" stroke="#C9A84C" stroke-width="2" opacity="0.2"/>
    <circle cx="150" cy="150" r="90" fill="none" stroke="#C9A84C" stroke-width="1.5" opacity="0.12"/>
  </g>
</svg>
