<svg xmlns="http://www.w3.org/2000/svg" width="520" height="160" viewBox="0 0 520 160">
  <rect width="520" height="160" rx="14" fill="#0D1B2A"/>
  <g transform="translate(24, 20)">
    <polygon points="44,0 88,22 88,66 44,88 0,66 0,22" fill="none" stroke="#C9A84C" stroke-width="1.5"/>
    <polygon points="44,10 80,30 80,58 44,78 8,58 8,30" fill="none" stroke="#C9A84C" stroke-width="0.5" opacity="0.3"/>
    <circle cx="44" cy="44" r="5" fill="#C9A84C"/>
    <circle cx="44" cy="0" r="2.5" fill="#C9A84C"/>
    <circle cx="88" cy="22" r="2.5" fill="#C9A84C"/>
    <circle cx="88" cy="66" r="2.5" fill="#C9A84C"/>
    <circle cx="44" cy="88" r="2.5" fill="#C9A84C"/>
    <circle cx="0" cy="66" r="2.5" fill="#C9A84C"/>
    <circle cx="0" cy="22" r="2.5" fill="#C9A84C"/>
    <line x1="44" y1="0" x2="44" y2="44" stroke="#C9A84C" stroke-width="0.8" opacity="0.5"/>
    <line x1="88" y1="22" x2="44" y2="44" stroke="#C9A84C" stroke-width="0.8" opacity="0.5"/>
    <line x1="88" y1="66" x2="44" y2="44" stroke="#C9A84C" stroke-width="0.8" opacity="0.5"/>
    <line x1="44" y1="88" x2="44" y2="44" stroke="#C9A84C" stroke-width="0.8" opacity="0.5"/>
    <line x1="0" y1="66" x2="44" y2="44" stroke="#C9A84C" stroke-width="0.8" opacity="0.5"/>
    <line x1="0" y1="22" x2="44" y2="44" stroke="#C9A84C" stroke-width="0.8" opacity="0.5"/>
    <circle cx="44" cy="44" r="14" fill="none" stroke="#C9A84C" stroke-width="0.5" opacity="0.2"/>
    <circle cx="44" cy="44" r="26" fill="none" stroke="#C9A84C" stroke-width="0.4" opacity="0.12"/>
  </g>
  <g transform="translate(136, 30)">
    <text font-family="Arial, sans-serif" font-weight="400" font-size="10" fill="#C9A84C" letter-spacing="5">PLAN · COORDINATE · EXPLORE</text>
    <line x1="0" y1="14" x2="360" y2="14" stroke="#C9A84C" stroke-width="0.4" opacity="0.3"/>
    <text y="70" font-family="Georgia, serif" font-weight="400" font-size="62" fill="#FFFFFF" letter-spacing="-2">Trav</text>
    <text x="142" y="70" font-family="Georgia, serif" font-weight="400" font-size="62" fill="#C9A84C" letter-spacing="-2">ello</text>
    <line x1="0" y1="82" x2="360" y2="82" stroke="#C9A84C" stroke-width="0.4" opacity="0.3"/>
  </g>
</svg>
