<svg xmlns="http://www.w3.org/2000/svg" width="420" height="80" viewBox="0 0 420 80">
  <g transform="translate(8, 8)">
    <polygon points="22,0 44,11 44,33 22,44 0,33 0,11" fill="none" stroke="#0D1B2A" stroke-width="1.2"/>
    <circle cx="22" cy="22" r="3" fill="#0D1B2A"/>
    <circle cx="22" cy="0" r="2" fill="#C9A84C"/>
    <circle cx="44" cy="11" r="2" fill="#C9A84C"/>
    <circle cx="44" cy="33" r="2" fill="#C9A84C"/>
    <circle cx="22" cy="44" r="2" fill="#C9A84C"/>
    <circle cx="0" cy="33" r="2" fill="#C9A84C"/>
    <circle cx="0" cy="11" r="2" fill="#C9A84C"/>
    <line x1="22" y1="0" x2="22" y2="22" stroke="#C9A84C" stroke-width="0.8" opacity="0.7"/>
    <line x1="44" y1="11" x2="22" y2="22" stroke="#C9A84C" stroke-width="0.8" opacity="0.7"/>
    <line x1="44" y1="33" x2="22" y2="22" stroke="#C9A84C" stroke-width="0.8" opacity="0.7"/>
    <line x1="22" y1="44" x2="22" y2="22" stroke="#C9A84C" stroke-width="0.8" opacity="0.7"/>
    <line x1="0" y1="33" x2="22" y2="22" stroke="#C9A84C" stroke-width="0.8" opacity="0.7"/>
    <line x1="0" y1="11" x2="22" y2="22" stroke="#C9A84C" stroke-width="0.8" opacity="0.7"/>
  </g>
  <g transform="translate(66, 10)">
    <text font-family="Arial, sans-serif" font-size="8" fill="#8B7355" letter-spacing="4">PLAN · COORDINATE · EXPLORE</text>
    <text y="48" font-family="Georgia, serif" font-weight="400" font-size="36" fill="#0D1B2A" letter-spacing="-0.5">Trav</text>
    <text x="82" y="48" font-family="Georgia, serif" font-weight="400" font-size="36" fill="#C9A84C" letter-spacing="-0.5">ello</text>
  </g>
</svg>
